<svg xmlns="http://www.w3.org/2000/svg" version="1.1" xmlns:xlink="http://www.w3.org/1999/xlink" xmlns:svgjs="http://svgjs.dev/svgjs" width="1000" height="1125" viewBox="0 0 1000 1125"><g transform="matrix(1,0,0,1,1.7053025658242404e-13,0)"><svg viewBox="0 0 320 360" data-background-color="#ffffff" preserveAspectRatio="xMidYMid meet" height="1125" width="1000" xmlns="http://www.w3.org/2000/svg" xmlns:xlink="http://www.w3.org/1999/xlink"><g id="tight-bounds" transform="matrix(1,0,0,1,0,0)"><svg viewBox="0 0 320 360" height="360" width="320"><g><svg></svg></g><g><svg viewBox="0 0 320 360" height="360" width="320"><g><path xmlns="http://www.w3.org/2000/svg" d="M20.961 227.22l3.726 4.658-1.863-6.056c-0.466-2.795-3.726 0.466-1.863 1.398M25.153 224.425c1.397 2.329 2.795 4.658 2.795 6.987 0 3.261 2.795 4.658 5.123 5.589-3.261-3.726-5.124-13.974-7.918-12.576M204.017 26.929c7.918 0 15.371-0.932 23.756 0.931 20.495 5.124 37.729 15.371 49.374 29.811l32.606 52.169c1.397 13.042 4.192 27.482 3.726 43.319 3.261 0 2.795-4.658 6.521-5.59-3.726 9.316-5.59 20.961-6.521 34.469-2.329-7.453 0-18.632 0.466-24.687-3.261 5.124-5.124 1.397-5.124-0.932 0.466-3.726-1.397-3.261-2.795-4.658-5.124-4.658-8.384-9.782-12.11-17.7 2.329-6.055 2.795-14.905-4.658-19.563-2.329-1.397-5.124-3.726-6.521-7.453-1.863-5.124-5.124-11.179-4.193-19.097 0.466-2.329-6.987 5.124-11.179 1.863-18.166-12.576-36.332-27.016-58.224-39.127-11.645 0-20.029-4.192-24.221-9.316-3.726-4.658-0.932-10.713 4.658-11.179 3.261 0 6.987-0.932 9.782 0.932 0.466-1.863 2.329-4.192 4.657-4.192M157.904 16.215l0.932 0.466c4.658 0.932 6.987 7.453 12.11 5.124 0 3.261 0.466 6.521-0.466 8.85-1.397 3.726-5.59 3.726-8.85 3.726-31.208-1.863-49.374 11.179-68.471 22.358-5.124 3.261-10.713 5.59-14.906 9.782-20.029 18.632-41.921 35.866-47.045 70.335l-4.192 38.195c-0.466 4.192-5.124 8.384-4.192 13.508l3.26 22.824c-3.261-3.261-5.124 0.932-4.192 2.795 0.466 1.397 2.329 6.055 5.124 1.863 3.726 6.987 7.453 20.495 12.576 26.55 15.837 18.632 36.332 35.4 53.101 52.169 4.192-0.932 7.453-0.932 8.384-3.727 1.397 2.795-1.397 5.59-3.726 6.056 7.453 4.658 15.837 8.85 27.016 9.781 14.44 0.932 27.948 3.261 40.524 6.522 6.521-1.863 13.042-2.795 20.029-3.261 2.329 0 3.726-3.726 6.521-4.658l0.466-4.658c2.795 4.192 2.329-1.397 0.466-4.192 3.261 2.795 4.192 5.124 5.589 6.987 0-1.397 3.726-6.521 3.727-0.466l0.931-6.055c1.397-0.932 1.863 5.124 3.261 0.931 1.397-4.192 4.192-0.932 6.987-2.329-0.932 1.863-0.466 5.59 2.794 3.261l3.727-3.261c2.329 5.59 6.055 3.261 7.918 2.329 20.495-13.042 40.99-28.413 60.553-43.784l-0.466 6.055 2.329-7.453c2.329 2.329 4.192 0.466 5.124-0.931 2.795-4.658 6.521-9.316 12.577-13.508-7.453 20.029-16.303 35.866-27.482 48.908l-4.658 5.59c0 3.261-0.932 7.453-4.658 7.918-1.863 0.466-5.59-0.932-8.384 1.863-1.397 1.863 3.261 5.59-0.466 2.795-3.261-2.329-6.521 0-10.248 0.932-2.795 0.932 1.863 3.726 2.795 5.589 0.932 1.863 1.863 3.726 1.398 6.056l-5.124-5.59c-6.055 3.261-9.782 9.316-14.906 13.974-2.329 1.863-1.397 5.124-1.397 7.918-3.261 0-6.987-0.932-8.85 0.932-1.397 1.863-0.932 4.658-0.932 7.453-4.658-0.466-5.124-7.453-9.315-6.056-4.192 0.932-8.85 1.397-12.577 3.727 2.795 5.59-4.658 2.329-3.726 3.26-6.987-4.192-13.042-7.453-20.495-4.658-15.837-5.124-35.4-2.795-49.84-0.931 0-2.329 0.466-4.658-0.466-5.124-0.932 2.329-3.726 1.397-3.26 1.397-8.85-6.055-17.7-9.782-27.016-14.905-8.384 0.932-16.303-3.261-18.632-5.59-6.521-6.055-13.974-2.795-20.029-4.192-13.042-3.261-17.7-16.769-19.098-26.084-0.932-4.658-4.658-6.521-6.055-6.056-6.055-19.563-15.371-37.263-22.824-55.429-1.863-4.658-1.397-9.316-1.397-14.44 2.329 0.932 4.658 0.466 4.192-2.794-2.329-15.371-7.918-27.016-13.974-38.195 3.261-15.837 3.726-34.469 11.179-48.443 6.521-12.576 18.632-19.098 27.016-29.811 2.795-3.726 2.795-8.85 5.59-12.11 9.316-9.316 18.632-19.098 28.879-27.482 4.658-3.726 10.247 0 17.234-1.397 2.329-8.384 11.645-15.837 20.495-13.508 3.726 0.932 11.179-8.85 13.508-9.782 3.726-1.397 1.863 3.726 1.863 6.987 8.85-6.987 20.961-10.713 32.14-14.906" fill="#a437db" fill-rule="nonzero" stroke="none" stroke-width="1" stroke-linecap="butt" stroke-linejoin="miter" stroke-miterlimit="10" stroke-dasharray="" stroke-dashoffset="0" font-family="none" font-weight="none" font-size="none" text-anchor="none" style="mix-blend-mode: normal" data-fill-palette-color="tertiary"></path></g><g transform="matrix(1,0,0,1,64,145.8464254286381)"><svg viewBox="0 0 192 68.30714914272379" height="68.30714914272379" width="192"><g><svg viewBox="0 0 192 68.30714914272379" height="68.30714914272379" width="192"><g><svg viewBox="0 0 192 68.30714914272379" height="68.30714914272379" width="192"><g><svg viewBox="0 0 192 68.30714914272379" height="68.30714914272379" width="192"><g id="textblocktransform"><svg viewBox="0 0 192 68.30714914272379" height="68.30714914272379" width="192" id="textblock"><g><svg viewBox="0 0 192 39.545047923322684" height="39.545047923322684" width="192"><g transform="matrix(1,0,0,1,0,0)"><svg width="192" viewBox="1.25 -37.25 234.72999572753906 48.349998474121094" height="39.545047923322684" data-palette-color="#a437db"><path d="M41.7-3.3L46.4-2.35 46.35 0 30.45 0 30.15-1.6Q31.6-2.55 34.4-3.65L34.4-3.65 34.25-17.1 34.95-25.65 25.7-0.8 19.95 0.35 10.65-25.4 11.45-17.1 11.2-3.2 15.4-2.35 15.35 0 1.55 0 1.25-1.6Q2.9-2.6 5.7-3.75L5.7-3.75 6.4-29.3 2.3-30.15 2.35-32.5 15.55-32.5 15.5-32.45 24.35-7.8 33.4-32.5 45.05-32.5 45.35-30.9Q43.75-29.9 41.25-28.9L41.25-28.9 41.7-3.3ZM46.6-12.05Q46.6-17.7 50.07-21.25 53.55-24.8 58.75-24.8 63.95-24.8 67.32-21.18 70.7-17.55 70.7-11.8L70.7-11.8Q70.7-6 67.37-2.5 64.05 1 58.9 1L58.9 1Q53.65 1 50.12-2.7 46.6-6.4 46.6-12.05ZM60.95-3.35L60.95-3.35Q63.3-5 63.3-11.2L63.3-11.2Q63.3-15.3 62.07-17.93 60.85-20.55 58.35-20.55L58.35-20.55Q56.85-20.55 55.8-19.85L55.8-19.85Q54-17.45 54-12.15L54-12.15Q54-8.15 55.3-5.63 56.6-3.1 59.25-3.1L59.25-3.1Q60.15-3.1 60.95-3.35ZM84.8-4.85L84.8-4.85Q86.2-4.85 89-5.5L89-5.5 89.55-3.05 81.85 0.8Q79.7 0.9 77.75-0.65 75.8-2.2 75.75-4.15L75.75-4.15 75.75-18.6 72.25-18.55 72.05-21.15Q73.95-22.5 76.1-23.55L76.1-23.55 78.6-30.05 82-30.05 82.85-23.55 89.7-23.55 89.8-21.4 87.35-18.5 83-18.5 83-7.15Q83-5.85 83.4-5.35 83.8-4.85 84.8-4.85ZM99.29-27.9L99.29-27.9Q96.14-29.3 94.04-31.95L94.04-31.95Q95.69-35.25 98.34-37.25L98.34-37.25Q101.34-35.65 103.39-32.85L103.39-32.85Q101.99-29.85 99.29-27.9ZM102.54-22.5L102.54-3.95Q104.89-3.2 106.19-2.45L106.19-2.45 105.99 0 91.64 0 91.49-1.7Q92.99-2.55 95.29-3.35L95.29-3.35 95.29-20.1 91.54-20.55 91.19-22.95Q95.49-24.6 100.09-24.7L100.09-24.7 102.54-22.5ZM125.09-33.3L125.09-33.3Q130.24-33.3 133.97-30.9 137.69-28.5 139.64-24.7 141.59-20.9 141.59-16.7L141.59-16.7Q141.59-9.4 137.06-4.8 132.54-0.2 125.04 0L125.04 0 108.59 0 108.29-1.6Q109.74-2.55 112.54-3.65L112.54-3.65 112.54-29.9 108.99-30.35 109.04-32.9Q116.24-33.3 125.09-33.3ZM123.94-4.15L123.94-4.15Q128.24-4.15 130.92-7.6 133.59-11.05 133.59-16.4L133.59-16.4Q133.59-20.55 131.87-24.15 130.14-27.75 127.39-29.4L127.39-29.4 120.14-28.65 120.14-4.75Q122.19-4.15 123.94-4.15ZM149.84-27.9L149.84-27.9Q146.69-29.3 144.59-31.95L144.59-31.95Q146.24-35.25 148.89-37.25L148.89-37.25Q151.89-35.65 153.94-32.85L153.94-32.85Q152.54-29.85 149.84-27.9ZM153.09-22.5L153.09-3.95Q155.44-3.2 156.74-2.45L156.74-2.45 156.54 0 142.19 0 142.04-1.7Q143.54-2.55 145.84-3.35L145.84-3.35 145.84-20.1 142.09-20.55 141.74-22.95Q146.04-24.6 150.64-24.7L150.64-24.7 153.09-22.5ZM184.39-23.75L184.54-21.55 181.94-20.25Q176.69-6.45 174.04-0.15L174.04-0.15Q172.29 0.4 169.74 0.4L169.74 0.4Q168.04 0.4 166.64 0.15L166.64 0.15 159.49-19.8 156.44-21.15 156.44-23.75 169.44-23.75 169.59-21.55 167.14-20.3 170.19-10.65 170.89-6.3 171.79-6.3Q173.29-12.35 174.94-20.2L174.94-20.2 172.39-21.15 172.44-23.75 184.39-23.75ZM210.48-23.75L210.63-21.55Q209.28-20.75 207.83-20.25L207.83-20.25Q204.83-9.6 202.63-3.7L202.63-3.7Q200.63 1.1 197.48 4.7 194.33 8.3 189.38 11.1L189.38 11.1 185.53 4.55Q192.13 2.7 195.68-0.25L195.68-0.25Q193.63-0.75 191.93-1.9L191.93-1.9 185.48-19.7 182.08-21.15 182.08-23.75 195.38-23.75 195.53-21.55 192.93-20.25 195.78-10.7 196.38-6.35 197.28-6.35Q199.43-13.2 200.48-20.15L200.48-20.15 197.88-21.15 197.93-23.75 210.48-23.75ZM235.53-4.65L235.98-2.4 229.88 0.8Q228.68 0.75 227.38-0.28 226.08-1.3 225.33-2.8L225.33-2.8 219.88 0.65 218.33 0.75Q215.18 0.75 213.13-1.1 211.08-2.95 211.08-5.55L211.08-5.55Q211.08-9.15 214.98-11.25L214.98-11.25 224.53-11.5 224.53-15.95Q224.53-19.95 222.18-21.05L222.18-21.05Q219.88-20.9 218.43-20.4L218.43-20.4 217.53-15 213.33-14.85Q212.23-17.6 212.23-20.9L212.23-20.9 212.28-21.9Q215.03-23.1 218.88-24.03 222.73-24.95 224.73-24.95L224.73-24.95Q226.58-24.95 228.36-23.95 230.13-22.95 231.23-21.35L231.23-21.35Q231.78-20.4 231.83-17.55L231.83-17.55 231.83-5.55Q231.83-4.35 233.08-4.35L233.08-4.35 235.53-4.65ZM219.38-3.7L219.38-3.7Q221.38-3.75 224.53-4.95L224.53-4.95 224.53-8.55 223.28-8.6Q218.33-8.6 218.33-5.9L218.33-5.9Q218.33-4.55 219.38-3.7Z" opacity="1" transform="matrix(1,0,0,1,0,0)" fill="#a437db" class="undefined-text-0" data-fill-palette-color="primary" id="text-0"></path></svg></g></svg></g><g transform="matrix(1,0,0,1,0,45.315619496485624)"><svg viewBox="0 0 192 22.991529646238167" height="22.991529646238167" width="192"><g transform="matrix(1,0,0,1,0,0)"><svg width="192" viewBox="-1.7100000381469727 -41.33000183105469 440.9499816894531 52.80000305175781" height="22.991529646238167" data-palette-color="#bb84e8"><path d="M2.91-0.17L2.91-0.17Q2 0.49 0.84 0.49-0.32 0.49-1.01-0.11-1.71-0.71-1.71-1.49-1.71-2.27-1.46-2.64L-1.46-2.64Q-0.76-2.22 0.28-2.22 1.32-2.22 1.84-2.5 2.37-2.78 2.86-3.27L2.86-3.27 6.32-13.55 6.81-15.23Q7.03-15.99 7.03-16.63L7.03-16.63Q7.03-18.85 4.93-19.46L4.93-19.46Q6.86-20.19 7.64-21.04L7.64-21.04Q8.86-22.39 9.57-24.58L9.57-24.58 12.26-33.59Q11.47-34.64 10.4-34.64 9.33-34.64 8.4-34.18L8.4-34.18Q8.15-34.62 8.15-35.17 8.15-35.72 8.39-36.21 8.62-36.69 9.03-37.06L9.03-37.06Q9.96-37.84 11.67-37.84 13.38-37.84 14.58-36.82L14.58-36.82Q15.8-37.84 17.61-37.84 19.43-37.84 20.51-36.87L20.51-36.87Q22.07-37.84 23.68-37.84 25.29-37.84 26.18-37.23 27.08-36.62 27.08-35.57L27.08-35.57Q27.08-35.08 26.78-34.72L26.78-34.72Q26.22-35.13 25.46-35.13L25.46-35.13Q23.83-35.13 23.34-32.91L23.34-32.91 26.46-22.92Q27.05-21.04 29.39-20L29.39-20Q30.05-19.7 30.74-19.46L30.74-19.46Q28.3-18.65 28.3-17.04L28.3-17.04Q28.3-16.43 28.49-15.97L28.49-15.97 33.15-3.47Q34.23-2.34 35.33-2.34 36.43-2.34 37.04-2.76L37.04-2.76Q37.3-2.56 37.3-2.03 37.3-1.49 37.13-1.04 36.96-0.59 36.6-0.24L36.6-0.24Q35.82 0.49 34.3 0.49 32.79 0.49 31.67-0.34L31.67-0.34Q30.4 0.49 28.8 0.49 27.2 0.49 26.05-0.32L26.05-0.32Q24.95 0.49 23.46 0.49 21.97 0.49 21-0.13 20.02-0.76 19.97-1.9L19.97-1.9Q19.97-2.59 20.24-2.76L20.24-2.76Q20.9-2.34 21.58-2.34L21.58-2.34Q23.02-2.34 23.61-2.93L23.61-2.93 21.75-9.16 8.54-9.16 6.93-3.76Q7.93-2.22 9.36-2.22 10.79-2.22 11.5-2.64L11.5-2.64Q11.77-2.2 11.77-1.43 11.77-0.66 11.01-0.09 10.25 0.49 9.06 0.49 7.86 0.49 6.86-0.12L6.86-0.12Q5.98 0.49 4.85 0.49 3.71 0.49 2.91-0.17ZM9.52-12.45L20.75-12.45 15.09-31.27 9.52-12.45ZM24.15-10.03L25.42-6.47Q25.85-6.47 25.85-7.45L25.85-7.45Q25.85-9.16 25.34-10.77L25.34-10.77 24.41-13.62Q23.44-16.85 23.44-17.68L23.44-17.68Q23.41-19.04 24.63-19.48L24.63-19.48Q22.95-19.82 22.58-20.53L22.58-20.53Q22.41-20.83 22.3-21 22.19-21.17 22.08-21.4 21.97-21.63 21.83-22 21.68-22.36 21.44-23.05L21.44-23.05 19.92-27.61Q19.38-29.32 18.33-30.2L18.33-30.2Q18.02-30.47 17.75-30.52L17.75-30.52Q19.38-24.61 19.9-22.95L19.9-22.95Q23.44-12.06 24.15-10.03L24.15-10.03ZM32.67-4.13L32.62-4.27 32.67-4.13ZM42.45-0.29L42.45-0.29Q41.33 0.49 39.9 0.49 38.47 0.49 37.78-0.15 37.08-0.78 37.08-1.37L37.08-1.37Q37.08-2.17 37.42-2.64L37.42-2.64Q37.96-2.22 38.79-2.22L38.79-2.22Q40.21-2.22 40.82-3.86L40.82-3.86 40.82-11.38Q40.82-12.45 40.38-12.94L40.38-12.94Q39.67-13.67 37.84-14.58L37.84-14.58Q39.55-15.36 40.04-15.84L40.04-15.84Q40.82-16.65 40.82-17.82L40.82-17.82 40.82-31.62Q40.82-34.4 38.55-34.4L38.55-34.4Q37.72-34.4 37.18-33.98L37.18-33.98Q36.84-34.45 36.84-34.95 36.84-35.45 37.09-35.91 37.35-36.38 37.89-36.77L37.89-36.77Q39.04-37.6 40.79-37.6 42.55-37.6 43.53-37.38L43.53-37.38Q44.87-39.06 46.56-39.06L46.56-39.06Q49-39.06 49-36.43L49-36.43 49-17.82Q49-16.65 49.51-16.14L49.51-16.14Q50.27-15.36 51.98-14.58L51.98-14.58Q50.14-13.67 49.68-13.21L49.68-13.21Q49-12.45 49-11.38L49-11.38 49-3.86Q49.58-2.22 51.02-2.22L51.02-2.22Q51.85-2.22 52.39-2.64L52.39-2.64Q52.73-2.17 52.73-1.48 52.73-0.78 52.04-0.15 51.34 0.49 49.95 0.49 48.56 0.49 47.36-0.29L47.36-0.29Q46.36 0.49 44.98 0.49 43.6 0.49 42.45-0.29ZM43.16-8.08L43.16-6.49Q44.26-7.2 44.46-9.59L44.46-9.59Q44.53-10.64 44.55-11.94 44.58-13.23 44.59-13.78 44.6-14.33 44.6-14.6L44.6-14.6 44.6-16.8Q44.6-17.7 44.58-18.85L44.58-18.85 44.58-21.24Q44.5-27.71 44.33-28.44L44.33-28.44Q43.99-29.98 43.16-30.52L43.16-30.52 43.16-22.29Q43.16-17.24 43.05-16.66 42.94-16.09 42.87-15.82L42.87-15.82Q42.65-15.06 41.21-14.58L41.21-14.58Q42.67-14.06 42.87-13.35L42.87-13.35Q43.16-12.18 43.16-8.08L43.16-8.08ZM100.34-25.17L100.34-25.17Q99.75-25.51 98.84-25.51 97.92-25.51 97.48-25.44 97.04-25.37 96.65-25.17L96.65-25.17Q95.82-24.76 95.45-23.63L95.45-23.63 93.7-18.51Q93.43-17.7 93.43-17.1 93.43-16.5 93.64-16.14 93.84-15.77 94.14-15.43L94.14-15.43Q94.79-14.72 95.23-14.6L95.23-14.6Q93.33-14.09 92.72-13.6L92.72-13.6Q91.82-12.92 91.35-11.72L91.35-11.72 87.86-1.15Q87.06 0.88 85.3 0.88L85.3 0.88Q84.79 0.88 84.2 0.71L84.2 0.71 76.04-19.53 70.33-1.15Q69.92 0.17 68.62 0.71L68.62 0.71Q68.21 0.88 67.73 0.88 67.26 0.88 66.67 0.71L66.67 0.71 61.49-11.57Q60.86-13.13 58.56-14.04L58.56-14.04 57.15-14.58Q58.91-16.09 58.91-16.65 58.91-17.21 58.78-17.7 58.66-18.19 58.41-18.92 58.15-19.65 57.76-20.7L57.76-20.7 56.76-23.24Q56.17-24.71 55.81-25.02L55.81-25.02Q55.17-25.61 54.19-25.61 53.22-25.61 52.68-25.2L52.68-25.2Q52.41-25.46 52.41-26.25 52.41-27.03 53.07-27.67 53.73-28.32 55.16-28.32 56.59-28.32 57.81-27.44L57.81-27.44Q58.81-28.32 60.29-28.32 61.76-28.32 62.89-27.49L62.89-27.49Q63.96-28.32 65.35-28.32 66.74-28.32 67.52-27.67 68.31-27.03 68.31-26.05L68.31-26.05Q68.31-25.46 67.94-25.1L67.94-25.1Q67.35-25.54 66.85-25.54 66.35-25.54 66.11-25.48 65.86-25.42 65.67-25.27L65.67-25.27Q65.18-24.93 65.23-24.32L65.23-24.32 70.23-11.3 74.31-23.8Q73.48-25.61 72.14-25.61L72.14-25.61Q71.33-25.61 70.77-25.2L70.77-25.2Q70.5-25.46 70.5-26.25 70.5-27.03 71.27-27.67 72.04-28.32 73.38-28.32 74.73-28.32 75.7-27.49L75.7-27.49Q76.75-28.32 78.14-28.32 79.54-28.32 80.63-27.51L80.63-27.51Q81.59-28.32 82.64-28.32 83.69-28.32 84.26-28.19 84.83-28.05 85.25-27.78L85.25-27.78Q86.18-27.25 86.18-26.29L86.18-26.29Q86.18-25.71 85.81-25.34L85.81-25.34Q85.22-25.78 84.61-25.78 84-25.78 83.65-25.32 83.3-24.85 83.3-24.28 83.3-23.71 83.44-23.24L83.44-23.24 83.39-23.36 87.86-11.3 92.11-23.88Q92.04-25.63 89.96-25.63L89.96-25.63Q88.98-25.63 88.18-25.17L88.18-25.17Q87.91-25.61 87.91-26.35 87.91-27.1 88.57-27.71 89.23-28.32 90.39-28.32 91.55-28.32 92.38-27.54L92.38-27.54Q93.26-28.32 94.38-28.32 95.5-28.32 96.36-27.61L96.36-27.61Q97.26-28.32 98.32-28.32 99.38-28.32 99.98-27.73 100.58-27.15 100.58-26.34 100.58-25.54 100.34-25.17ZM65.47-23.41L65.25-24.02Q65.33-23.75 65.47-23.41L65.47-23.41ZM82.81-12.18L78.44-22.73Q78.1-22.24 78.1-21.56 78.1-20.87 78.23-20.31 78.36-19.75 78.58-19.12 78.8-18.48 79.1-17.77L79.1-17.77 79.63-16.36 83.95-6.47Q84.17-6.71 84.17-7.3 84.17-7.89 84.11-8.23 84.05-8.57 83.89-9.08 83.74-9.59 83.47-10.35L83.47-10.35 82.81-12.18ZM67.38-6.47L60.66-22.73Q60.32-22.51 60.32-21.88 60.32-21.24 60.35-20.94 60.37-20.63 60.47-20.21L60.47-20.21Q60.66-19.34 61.27-17.88 61.88-16.43 61.9-16.11 61.91-15.8 61.84-15.59 61.76-15.38 61.62-15.19L61.62-15.19Q61.32-14.7 60.91-14.55L60.91-14.55Q62.62-14.21 63.03-13.48L63.03-13.48 63.37-12.82Q63.52-12.5 63.72-12.01L63.72-12.01 65.06-9.01Q65.57-7.89 66.06-7.28 66.55-6.67 67.38-6.47L67.38-6.47ZM117.6-2.32L117.6-2.32Q115.37 0.61 110.93 0.61L110.93 0.61Q105.51 0.61 102.8-2.64L102.8-2.64Q101.63-4.03 101.19-5.74L101.19-5.74Q100.94-6.76 100.33-7.31 99.72-7.86 98.82-8.3L98.82-8.3Q100.58-9.11 101.34-11.33L101.34-11.33Q102.14-13.67 104.02-14.72L104.02-14.72Q106.05-15.82 108.49-15.88 110.93-15.94 112.1-16.04 113.27-16.14 114.18-16.36L114.18-16.36Q115.86-16.75 116.81-17.8L116.81-17.8 116.81-21.46Q116.81-23.88 115.83-25 114.84-26.12 112.82-26.12 110.81-26.12 109.84-25.38 108.88-24.63 108.88-23.39L108.88-23.39Q108.88-21.48 110.83-21.53L110.83-21.53Q110.44-19.63 108.78-19.63L108.78-19.63Q108.29-19.63 107.83-19.8L107.83-19.8 107.83-19.73Q107.83-19.09 108.42-18.92L108.42-18.92Q107.81-17.99 106.36-18.02 104.92-18.04 104.12-19.56L104.12-19.56Q103.75-19.46 103.28-19.46 102.8-19.46 102.23-19.78 101.65-20.09 101.31-20.65L101.31-20.65Q102.53-21.39 102.8-22.92L102.8-22.92Q103.09-24.8 105.8-26.73L105.8-26.73Q109.07-29.05 114.15-29.05L114.15-29.05Q122.58-29.05 124.43-23.88L124.43-23.88Q125.04-22.14 125.04-19.78L125.04-19.78 125.04-17.8Q125.04-16.6 125.64-15.84 126.24-15.09 127.68-14.6L127.68-14.6Q126.14-13.89 125.7-13.33L125.7-13.33Q125.04-12.48 125.04-11.38L125.04-11.38 125.04-4.05Q125.75-2.22 127.07-2.22L127.07-2.22Q127.9-2.22 128.43-2.64L128.43-2.64Q128.78-2.17 128.78-1.48 128.78-0.78 128.08-0.15 127.39 0.49 125.99 0.49 124.6 0.49 123.41-0.29L123.41-0.29Q122.36 0.49 121.54 0.49 120.72 0.49 120.12 0.33 119.52 0.17 119.01-0.17L119.01-0.17Q117.86-0.93 117.6-2.32ZM119.13-22.73L119.13-6.47Q120.55-7.03 120.62-11.87L120.62-11.87Q120.62-12.89 120.62-14.21 120.62-15.53 120.61-16.47 120.6-17.41 120.57-18.26L120.57-18.26Q120.48-21.34 120.01-21.94 119.55-22.53 119.13-22.73L119.13-22.73ZM110.12-8.2L110.12-8.2Q110.12-7.18 110.34-6.2 110.56-5.22 111-4.49L111-4.49Q111.98-2.95 113.76-2.95L113.76-2.95Q115.1-2.95 115.98-4.05L115.98-4.05Q116.81-5.13 116.81-6.81L116.81-6.81 116.81-14.77Q115.25-13.87 112.81-13.53L112.81-13.53Q110.12-13.11 110.12-8.2ZM106.46-2.71L106.46-2.71Q106.71-2.88 106.71-3.15L106.71-3.15Q106.71-3.52 106.36-4.17L106.36-4.17Q105.14-6.42 105.14-7.86 105.14-9.3 105.25-9.94 105.36-10.57 105.55-11.02 105.73-11.47 105.96-11.82 106.19-12.16 106.36-12.43L106.36-12.43Q106.68-12.99 106.68-13.2 106.68-13.4 106.46-13.55L106.46-13.55Q105.46-13.09 105-12.45L105-12.45Q104.17-11.33 103.78-9.55L103.78-9.55Q103.68-9.03 102.07-8.3L102.07-8.3Q103.63-7.59 103.78-7.06L103.78-7.06Q104.61-4.15 106.46-2.71ZM160.46-25.17L160.46-25.17Q159.93-25.51 158.75-25.51L158.75-25.51Q156.41-25.51 155.21-22.34L155.21-22.34 154.46-20.21Q153.63-17.9 153.62-17.04 153.6-16.19 153.91-15.66 154.21-15.14 155.29-14.58L155.29-14.58Q152.65-13.84 151.7-12.11L151.7-12.11Q151.41-11.57 151.19-10.99L151.19-10.99 147.13 0.02Q144.77 6.84 142.74 9.25L142.74 9.25Q140.88 11.47 138.1 11.47L138.1 11.47Q135.98 11.47 134.1 10.11L134.1 10.11Q131.95 8.57 131.95 6.49L131.95 6.49Q131.95 5.2 132.63 4.53 133.32 3.86 133.89 3.86 134.46 3.86 134.68 3.87 134.9 3.88 135.12 3.96L135.12 3.96Q135.56 4.15 135.95 4.83L135.95 4.83Q135.44 5.81 136.61 6.98L136.61 6.98Q137.71 8.13 138.67 8.13 139.64 8.13 140.29 7.76 140.93 7.4 141.45 6.64L141.45 6.64Q142.57 4.98 142.57 1.88L142.57 1.88Q142.57 0.2 141.66-1.83L141.66-1.83Q141.42-2.51 141.08-3.27L141.08-3.27 137.61-11.08Q137.05-12.33 135.92-13.29 134.78-14.26 133.36-14.58L133.36-14.58Q135.05-15.43 135.05-16.82L135.05-16.82Q135.05-17.82 134.24-19.78L134.24-19.78 132.8-23.24Q132.17-24.66 131.75-25.02L131.75-25.02Q131.02-25.61 130.06-25.61 129.09-25.61 128.55-25.2L128.55-25.2Q128.26-25.49 128.25-26.05 128.24-26.61 128.38-26.99 128.53-27.37 128.87-27.66L128.87-27.66Q129.6-28.32 130.98-28.32 132.36-28.32 133.58-27.44L133.58-27.44Q134.58-28.32 136.03-28.32 137.47-28.32 138.56-27.51L138.56-27.51Q139.66-28.32 141.03-28.32 142.4-28.32 143.19-27.67 143.98-27.03 144.01-26.39L144.01-26.39Q144.03-25.44 143.69-25.1L143.69-25.1Q143.11-25.54 142.47-25.54 141.84-25.54 141.43-25.17 141.03-24.8 141.08-23.97L141.08-23.97 146.72-8.74 152.07-24.39Q151.8-25.63 150.28-25.63L150.28-25.63Q149.33-25.63 148.48-25.17L148.48-25.17Q148.23-25.63 148.24-26.37 148.26-27.1 148.93-27.71 149.6-28.32 150.76-28.32 151.92-28.32 152.75-27.54L152.75-27.54Q153.63-28.32 154.73-28.32 155.82-28.32 156.73-27.64L156.73-27.64Q157.56-28.32 158.57-28.32 159.58-28.32 160.18-27.73 160.78-27.15 160.76-26.51L160.76-26.51Q160.71-25.54 160.46-25.17ZM141.45-12.08L136.95-22.73Q136.39-22.36 136.4-21.8 136.42-21.24 136.45-20.94 136.49-20.63 136.59-20.21L136.59-20.21Q136.81-19.43 137.48-17.91 138.15-16.38 138.19-16 138.22-15.63 137.93-15.17 137.64-14.72 137.22-14.58L137.22-14.58Q138.78-14.28 139.15-13.48L139.15-13.48Q139.32-13.13 139.64-12.4L139.64-12.4 141.3-8.69Q141.79-7.57 142.32-6.47L142.32-6.47Q143.32-7.69 141.45-12.08L141.45-12.08ZM166.3-0.59L166.3-0.59Q164.64 1 163.1 1L163.1 1Q162.24 1 161.93 0.37L161.93 0.37Q162.49-0.2 162.49-0.76 162.49-1.32 162.32-1.61L162.32-1.61 162-2.17 162.39-1.44Q161.8-1.71 161.49-2.34 161.17-2.98 161.17-3.89 161.17-4.81 162.19-5.98L162.19-5.98Q161.71-6.67 161.71-7.5 161.71-8.33 161.99-8.87 162.27-9.42 162.71-9.86L162.71-9.86Q163.68-10.79 164.78-10.79L164.78-10.79Q165.51-10.79 165.83-10.28L165.83-10.28Q165.17-9.57 165.17-8.04 165.17-6.52 165.7-5.44 166.22-4.37 167.13-3.61L167.13-3.61Q169.03-2 171.81-2L171.81-2Q174.91-2 176.11-4.27L176.11-4.27Q176.45-4.96 176.45-5.65 176.45-6.35 176.13-6.9 175.82-7.45 175.3-7.96L175.3-7.96Q174.45-8.79 172.69-9.86L172.69-9.86Q171.01-11.06 168.71-11.06L168.71-11.06Q167.22-11.06 166.71-10.82L166.71-10.82Q167.03-11.55 167.03-12.28 167.03-13.01 166.05-13.88 165.08-14.75 164.31-15.63 163.54-16.5 163.07-17.38L163.07-17.38Q162.15-19.04 162.15-20.9 162.15-22.75 162.91-24.18 163.68-25.61 165.08-26.64L165.08-26.64Q167.98-28.81 172.52-28.81L172.52-28.81Q174.72-28.81 175.54-28.61 176.35-28.42 176.84-28.25L176.84-28.25Q177.5-28 178.45-28 179.41-28 179.78-28.42 180.16-28.83 180.16-29.19 180.16-29.54 180.09-29.74L180.09-29.74Q180.24-29.79 180.53-29.79 180.82-29.79 181.2-29.61 181.58-29.44 181.87-29.15L181.87-29.15Q182.46-28.49 182.46-27.75 182.46-27 182.17-26.61L182.17-26.61Q182.85-25.98 182.85-24.8 182.85-23.63 181.87-22.83L181.87-22.83Q182.09-22.39 182.09-21.75 182.09-21.12 181.41-20.53 180.72-19.95 180.11-19.95L180.11-19.95Q179.06-19.95 178.7-20.21L178.7-20.21Q179.02-21 179.02-21.91 179.02-22.83 178.53-23.66 178.04-24.49 177.28-25L177.28-25Q175.87-25.98 173.91-25.98L173.91-25.98Q171.45-25.98 170.59-24.41L170.59-24.41Q170.32-23.93 170.32-23.35 170.32-22.78 170.48-22.3 170.64-21.83 171.01-21.34L171.01-21.34Q171.72-20.39 173.01-19.53L173.01-19.53Q174.69-18.43 175.35-18.43L175.35-18.43Q176.77-18.43 177.82-19.12L177.82-19.12Q177.53-17.94 177.53-17.48L177.53-17.48Q177.53-16.77 178.65-15.84L178.65-15.84Q181.8-13.67 182.95-11.87L182.95-11.87Q184.05-10.11 184.05-7.96 184.05-5.81 183.09-4.28 182.14-2.76 180.51-1.66L180.51-1.66Q177.11 0.61 172.28 0.61L172.28 0.61Q168.98 0.61 166.3-0.59ZM165.44-22.95L165.44-22.95Q164.73-22.61 164.73-21.06 164.73-19.51 165.73-18.1 166.74-16.7 168.91-14.94L168.91-14.94Q169.42-14.55 169.42-14.18L169.42-14.18Q169.42-13.62 169.32-13.28L169.32-13.28Q169.62-13.35 170.35-13.43L170.35-13.43Q172.13-13.6 174.77-11.77L174.77-11.77Q178.97-9.18 178.97-6.32L178.97-6.32Q178.97-5.25 178.67-4.71L178.67-4.71Q179.55-4.88 180.02-6.2L180.02-6.2Q180.14-6.59 180.14-7.01L180.14-7.01Q180.14-8.98 178-11.02 175.87-13.06 171.86-14.97L171.86-14.97Q165.22-18.33 165.44-22.95ZM244.07-25.17L244.07-25.17Q243.49-25.51 242.57-25.51 241.66-25.51 241.22-25.44 240.78-25.37 240.39-25.17L240.39-25.17Q239.56-24.76 239.19-23.63L239.19-23.63 237.43-18.51Q237.17-17.7 237.17-17.1 237.17-16.5 237.37-16.14 237.58-15.77 237.87-15.43L237.87-15.43Q238.53-14.72 238.97-14.6L238.97-14.6Q237.07-14.09 236.46-13.6L236.46-13.6Q235.55-12.92 235.09-11.72L235.09-11.72 231.6-1.15Q230.79 0.88 229.04 0.88L229.04 0.88Q228.52 0.88 227.94 0.71L227.94 0.71 219.78-19.53 214.07-1.15Q213.65 0.17 212.36 0.71L212.36 0.71Q211.95 0.88 211.47 0.88 210.99 0.88 210.41 0.71L210.41 0.71 205.23-11.57Q204.6-13.13 202.3-14.04L202.3-14.04 200.89-14.58Q202.64-16.09 202.64-16.65 202.64-17.21 202.52-17.7 202.4-18.19 202.14-18.92 201.89-19.65 201.5-20.7L201.5-20.7 200.5-23.24Q199.91-24.71 199.54-25.02L199.54-25.02Q198.91-25.61 197.93-25.61 196.96-25.61 196.42-25.2L196.42-25.2Q196.15-25.46 196.15-26.25 196.15-27.03 196.81-27.67 197.47-28.32 198.9-28.32 200.32-28.32 201.55-27.44L201.55-27.44Q202.55-28.32 204.02-28.32 205.5-28.32 206.62-27.49L206.62-27.49Q207.7-28.32 209.09-28.32 210.48-28.32 211.26-27.67 212.04-27.03 212.04-26.05L212.04-26.05Q212.04-25.46 211.68-25.1L211.68-25.1Q211.09-25.54 210.59-25.54 210.09-25.54 209.85-25.48 209.6-25.42 209.41-25.27L209.41-25.27Q208.92-24.93 208.97-24.32L208.97-24.32 213.97-11.3 218.05-23.8Q217.22-25.61 215.88-25.61L215.88-25.61Q215.07-25.61 214.51-25.2L214.51-25.2Q214.24-25.46 214.24-26.25 214.24-27.03 215.01-27.67 215.78-28.32 217.12-28.32 218.46-28.32 219.44-27.49L219.44-27.49Q220.49-28.32 221.88-28.32 223.27-28.32 224.37-27.51L224.37-27.51Q225.32-28.32 226.37-28.32 227.42-28.32 228-28.19 228.57-28.05 228.99-27.78L228.99-27.78Q229.91-27.25 229.91-26.29L229.91-26.29Q229.91-25.71 229.55-25.34L229.55-25.34Q228.96-25.78 228.35-25.78 227.74-25.78 227.39-25.32 227.03-24.85 227.03-24.28 227.03-23.71 227.18-23.24L227.18-23.24 227.13-23.36 231.6-11.3 235.85-23.88Q235.77-25.63 233.7-25.63L233.7-25.63Q232.72-25.63 231.92-25.17L231.92-25.17Q231.65-25.61 231.65-26.35 231.65-27.1 232.31-27.71 232.97-28.32 234.13-28.32 235.29-28.32 236.12-27.54L236.12-27.54Q236.99-28.32 238.12-28.32 239.24-28.32 240.09-27.61L240.09-27.61Q241-28.32 242.06-28.32 243.12-28.32 243.72-27.73 244.32-27.15 244.32-26.34 244.32-25.54 244.07-25.17ZM209.21-23.41L208.99-24.02Q209.06-23.75 209.21-23.41L209.21-23.41ZM226.55-12.18L222.17-22.73Q221.83-22.24 221.83-21.56 221.83-20.87 221.97-20.31 222.1-19.75 222.32-19.12 222.54-18.48 222.83-17.77L222.83-17.77 223.37-16.36 227.69-6.47Q227.91-6.71 227.91-7.3 227.91-7.89 227.85-8.23 227.79-8.57 227.63-9.08 227.47-9.59 227.2-10.35L227.2-10.35 226.55-12.18ZM211.12-6.47L204.4-22.73Q204.06-22.51 204.06-21.88 204.06-21.24 204.08-20.94 204.11-20.63 204.21-20.21L204.21-20.21Q204.4-19.34 205.01-17.88 205.62-16.43 205.63-16.11 205.65-15.8 205.57-15.59 205.5-15.38 205.35-15.19L205.35-15.19Q205.06-14.7 204.65-14.55L204.65-14.55Q206.35-14.21 206.77-13.48L206.77-13.48 207.11-12.82Q207.26-12.5 207.45-12.01L207.45-12.01 208.8-9.01Q209.31-7.89 209.8-7.28 210.29-6.67 211.12-6.47L211.12-6.47ZM251.25-32.3L251.25-32.3Q250-32.3 248.84-32.96 247.69-33.62 247.07-34.72L247.07-34.72Q246.42-35.84 245.32-36.43L245.32-36.43Q244.98-36.6 244.54-36.79L244.54-36.79 245.37-37.3Q246.54-38.04 247.1-39.09 247.66-40.14 248.8-40.73 249.93-41.33 251.25-41.33L251.25-41.33Q253.98-41.33 255.2-39.04L255.2-39.04Q256.03-37.52 257.77-36.79L257.77-36.79Q257.4-36.57 257.05-36.4 256.69-36.23 256.38-36.01L256.38-36.01Q255.67-35.52 255.12-34.57 254.57-33.62 253.53-32.96 252.49-32.3 251.25-32.3ZM249.96-35.29Q249.81-35.55 249.72-35.9 249.64-36.25 249.64-37.16 249.64-38.06 250.57-39.45L250.57-39.45Q249.66-39.45 249.3-39.12 248.93-38.79 248.75-38.56 248.56-38.33 248.43-38.1 248.3-37.87 248.1-37.6L248.1-37.6Q247.64-36.94 247.34-36.79L247.34-36.79Q247.73-36.57 248.06-36.1 248.39-35.62 248.83-35.11L248.83-35.11Q249.49-34.3 250.57-34.3L250.57-34.3Q250.42-34.57 250.26-34.8 250.1-35.03 249.96-35.29ZM248.81-0.29L248.81-0.29Q247.69 0.49 246.26 0.49 244.83 0.49 244.13-0.15 243.44-0.78 243.44-1.37L243.44-1.37Q243.44-2.17 243.78-2.64L243.78-2.64Q244.32-2.22 245.37-2.22 246.42-2.22 247.17-3.59L247.17-3.59 247.17-11.38Q247.17-12.45 246.73-12.94L246.73-12.94Q246.02-13.67 244.19-14.58L244.19-14.58Q245.9-15.36 246.37-15.82L246.37-15.82Q247.17-16.63 247.17-17.8L247.17-17.8 247.17-21.36Q247.17-23.44 245.76-23.61L245.76-23.61Q245.34-23.66 244.71-23.66 244.07-23.66 243.53-23.24L243.53-23.24Q243.19-23.71 243.19-24.21 243.19-24.71 243.45-25.33 243.71-25.95 244.24-26.51L244.24-26.51Q245.51-27.83 247.17-27.83 248.83-27.83 250.18-27.25L250.18-27.25Q251.37-28.81 252.91-28.81L252.91-28.81Q255.42-28.81 255.42-26.17L255.42-26.17 255.42-17.8Q255.42-16.63 255.94-16.11L255.94-16.11Q256.69-15.36 258.4-14.58L258.4-14.58Q256.57-13.67 256.11-13.21L256.11-13.21Q255.42-12.45 255.42-11.38L255.42-11.38 255.42-3.52Q256.23-2.22 257.26-2.22 258.28-2.22 258.82-2.64L258.82-2.64Q259.16-2.17 259.16-1.48 259.16-0.78 258.46-0.15 257.77 0.49 256.38 0.49 254.98 0.49 253.79-0.29L253.79-0.29Q252.79 0.49 251.37 0.49 249.96 0.49 248.81-0.29ZM250.92-11.87Q250.93-12.7 250.94-13.26 250.96-13.82 250.96-14.16L250.96-14.16 250.96-14.82Q250.96-15.19 250.94-15.77 250.93-16.36 250.92-17.07 250.91-17.77 250.88-18.46L250.88-18.46Q250.79-20.14 250.64-20.78L250.64-20.78Q250.35-22.19 249.52-22.73L249.52-22.73 249.52-21.14Q249.52-17.02 249.33-16.3 249.15-15.58 248.75-15.22 248.34-14.87 247.56-14.6L247.56-14.6Q249.03-14.09 249.22-13.35L249.22-13.35Q249.52-12.18 249.52-8.06L249.52-8.06 249.52-6.47Q250.64-7.2 250.79-9.47L250.79-9.47Q250.91-11.04 250.92-11.87ZM277.49-3.58Q277.96-4.05 278.22-4.8 278.49-5.54 278.49-6.36 278.49-7.18 278.4-7.86L278.4-7.86Q278.57-8.23 279.32-8.44 280.08-8.64 280.32-8.64L280.32-8.64Q281.25-8.64 281.81-7.95 282.37-7.25 282.37-6.02 282.37-4.79 281.65-3.59 280.93-2.39 279.74-1.46L279.74-1.46Q277.08 0.61 273.54 0.61L273.54 0.61Q266.8 0.61 264.6-4.49L264.6-4.49Q263.8-6.37 263.8-9.2L263.8-9.2 263.8-12.18Q263.8-13.33 261.28-14.6L261.28-14.6Q263.8-16.04 263.8-18.48L263.8-18.48 263.8-21.36Q263.8-24.15 261.53-24.15L261.53-24.15Q260.7-24.15 260.16-23.73L260.16-23.73Q259.82-24.19 259.82-24.69 259.82-25.2 260-25.79 260.18-26.39 260.65-26.88L260.65-26.88Q261.82-28.15 264.28-27.76L264.28-27.76 264.28-28.54Q264.28-31.1 265.58-33.06L265.58-33.06Q266.73-34.81 267.62-34.81 268.51-34.81 269-34.2L269-34.2Q269.41-36.13 270.09-36.99 270.78-37.84 272.05-37.84L272.05-37.84 272.05-27.66 279.98-27.66Q280.18-27.27 280.18-26.35 280.18-25.44 279.47-24.89 278.76-24.34 277.76-24.34L277.76-24.34 272.05-24.34 272.05-7.81Q272.05-3.56 273.98-2.83L273.98-2.83Q274.54-2.64 275.19-2.64 275.83-2.64 276.43-2.87 277.03-3.1 277.49-3.58ZM266.14-8.06L266.14-6.47Q267.29-7.2 267.43-9.52L267.43-9.52Q267.53-11.18 267.54-12.11 267.56-13.04 267.57-13.61 267.58-14.18 267.58-14.5L267.58-14.5 267.58-15.48Q267.58-16.19 267.57-17.3 267.56-18.41 267.54-19.71 267.53-21.02 267.48-22.22L267.48-22.22Q267.41-25.1 267.26-25.73L267.26-25.73Q266.97-27.15 266.14-27.69L266.14-27.69 266.14-20.07Q266.14-16.67 266.03-16.48 265.92-16.28 265.85-16.02L265.85-16.02Q265.63-15.28 264.19-14.79L264.19-14.79Q265.65-14.28 265.85-13.55L265.85-13.55Q266.14-12.38 266.14-8.06L266.14-8.06ZM288.4-0.29L288.4-0.29Q287.28 0.49 285.85 0.49 284.42 0.49 283.73-0.15 283.03-0.78 283.03-1.37L283.03-1.37Q283.03-2.17 283.37-2.64L283.37-2.64Q283.91-2.22 284.74-2.22L284.74-2.22Q286.16-2.22 286.77-3.86L286.77-3.86 286.77-11.38Q286.77-12.6 286.3-13.04L286.3-13.04Q285.74-13.62 283.79-14.58L283.79-14.58Q285.5-15.36 285.96-15.82L285.96-15.82Q286.77-16.63 286.77-17.8L286.77-17.8 286.77-31.62Q286.77-34.4 284.5-34.4L284.5-34.4Q283.67-34.4 283.13-33.98L283.13-33.98Q282.79-34.45 282.79-34.95 282.79-35.45 283.04-35.91 283.3-36.38 283.81-36.77L283.81-36.77Q284.98-37.6 286.74-37.6 288.5-37.6 289.48-37.38L289.48-37.38Q290.82-39.06 292.5-39.06L292.5-39.06Q295.02-39.06 295.02-36.43L295.02-36.43 295.02-24.39Q297.39-28.81 302.76-28.81L302.76-28.81Q308.91-28.81 310.6-23.36L310.6-23.36Q311.13-21.63 311.13-19.43L311.13-19.43 311.13-17.8Q311.13-16.65 311.64-16.14L311.64-16.14Q312.4-15.38 314.11-14.6L314.11-14.6Q312.26-13.7 311.82-13.21L311.82-13.21Q311.13-12.45 311.13-11.38L311.13-11.38 311.13-3.74Q311.6-2.22 313.16-2.22L313.16-2.22Q313.99-2.22 314.53-2.64L314.53-2.64Q314.79-2.27 314.79-1.56 314.79-0.85 314.15-0.18 313.5 0.49 312.08 0.49 310.67 0.49 309.47-0.29L309.47-0.29Q308.37 0.49 306.99 0.49 305.61 0.49 304.59-0.24L304.59-0.24Q303.64 0.49 302.45 0.49 301.27 0.49 300.56-0.12 299.85-0.73 299.85-1.88L299.85-1.88Q299.85-2.42 300.22-2.73L300.22-2.73Q300.78-2.29 301.34-2.29L301.34-2.29Q302.42-2.29 302.88-3.49L302.88-3.49 302.88-18.04Q302.88-22.8 300.56-23.54L300.56-23.54Q299.83-23.78 298.97-23.78L298.97-23.78Q296.43-23.78 295.43-21.09L295.43-21.09Q295.12-20.26 295.02-19.29L295.02-19.29 295.02-3.49Q295.48-2.29 296.56-2.29L296.56-2.29Q297.12-2.29 297.68-2.73L297.68-2.73Q298.05-2.42 298.05-1.57 298.05-0.73 297.34-0.12 296.63 0.49 295.43 0.49 294.24 0.49 293.29-0.24L293.29-0.24Q292.28 0.49 290.92 0.49 289.55 0.49 288.4-0.29ZM289.06-8.08L289.06-6.49Q290.16-7.2 290.36-9.59L290.36-9.59Q290.43-10.64 290.45-11.94 290.48-13.23 290.49-13.78 290.5-14.33 290.5-14.6L290.5-14.6 290.5-16.8Q290.5-17.7 290.5-18.85L290.5-18.85 290.45-21.24Q290.4-27.71 290.23-28.44L290.23-28.44Q289.89-29.98 289.06-30.52L289.06-30.52 289.06-22.29Q289.06-17.24 288.95-16.66 288.84-16.09 288.77-15.82L288.77-15.82Q288.55-15.06 287.11-14.58L287.11-14.58Q288.57-14.06 288.77-13.35L288.77-13.35Q289.06-12.18 289.06-8.08L289.06-8.08ZM305.2-15.26L305.2-6.47Q306.42-6.93 306.57-9.67L306.57-9.67Q306.69-12.4 306.69-14.69 306.69-16.97 306.54-18.41 306.4-19.85 306.07-20.69 305.74-21.53 305.22-21.96 304.71-22.39 303.98-22.75L303.98-22.75Q304.91-20.56 305.05-18.75 305.2-16.94 305.2-15.26L305.2-15.26ZM358.42-25.17L358.42-25.17Q357.88-25.51 356.71-25.51L356.71-25.51Q354.36-25.51 353.17-22.34L353.17-22.34 352.41-20.21Q351.58-17.9 351.57-17.04 351.56-16.19 351.86-15.66 352.17-15.14 353.24-14.58L353.24-14.58Q350.6-13.84 349.65-12.11L349.65-12.11Q349.36-11.57 349.14-10.99L349.14-10.99 345.09 0.02Q342.72 6.84 340.69 9.25L340.69 9.25Q338.84 11.47 336.05 11.47L336.05 11.47Q333.93 11.47 332.05 10.11L332.05 10.11Q329.9 8.57 329.9 6.49L329.9 6.49Q329.9 5.2 330.59 4.53 331.27 3.86 331.84 3.86 332.42 3.86 332.64 3.87 332.86 3.88 333.08 3.96L333.08 3.96Q333.51 4.15 333.91 4.83L333.91 4.83Q333.39 5.81 334.56 6.98L334.56 6.98Q335.66 8.13 336.63 8.13 337.59 8.13 338.24 7.76 338.89 7.4 339.4 6.64L339.4 6.64Q340.52 4.98 340.52 1.88L340.52 1.88Q340.52 0.2 339.62-1.83L339.62-1.83Q339.37-2.51 339.03-3.27L339.03-3.27 335.57-11.08Q335-12.33 333.87-13.29 332.73-14.26 331.32-14.58L331.32-14.58Q333-15.43 333-16.82L333-16.82Q333-17.82 332.2-19.78L332.2-19.78 330.76-23.24Q330.12-24.66 329.71-25.02L329.71-25.02Q328.97-25.61 328.01-25.61 327.05-25.61 326.51-25.2L326.51-25.2Q326.22-25.49 326.2-26.05 326.19-26.61 326.34-26.99 326.48-27.37 326.83-27.66L326.83-27.66Q327.56-28.32 328.94-28.32 330.32-28.32 331.54-27.44L331.54-27.44Q332.54-28.32 333.98-28.32 335.42-28.32 336.52-27.51L336.52-27.51Q337.62-28.32 338.98-28.32 340.35-28.32 341.14-27.67 341.94-27.03 341.96-26.39L341.96-26.39Q341.99-25.44 341.64-25.1L341.64-25.1Q341.06-25.54 340.42-25.54 339.79-25.54 339.39-25.17 338.98-24.8 339.03-23.97L339.03-23.97 344.67-8.74 350.02-24.39Q349.75-25.63 348.24-25.63L348.24-25.63Q347.28-25.63 346.43-25.17L346.43-25.17Q346.19-25.63 346.2-26.37 346.21-27.1 346.88-27.71 347.55-28.32 348.71-28.32 349.87-28.32 350.7-27.54L350.7-27.54Q351.58-28.32 352.68-28.32 353.78-28.32 354.68-27.64L354.68-27.64Q355.51-28.32 356.53-28.32 357.54-28.32 358.14-27.73 358.73-27.15 358.71-26.51L358.71-26.51Q358.66-25.54 358.42-25.17ZM339.4-12.08L334.91-22.73Q334.35-22.36 334.36-21.8 334.37-21.24 334.41-20.94 334.44-20.63 334.54-20.21L334.54-20.21Q334.76-19.43 335.43-17.91 336.1-16.38 336.14-16 336.18-15.63 335.88-15.17 335.59-14.72 335.18-14.58L335.18-14.58Q336.74-14.28 337.1-13.48L337.1-13.48Q337.27-13.13 337.59-12.4L337.59-12.4 339.25-8.69Q339.74-7.57 340.28-6.47L340.28-6.47Q341.28-7.69 339.4-12.08L339.4-12.08ZM364.88-2.73Q363.35-4.3 362.46-6.45 361.56-8.59 361.37-10.13 361.17-11.67 361.04-12.11 360.91-12.55 360.59-12.94L360.59-12.94Q359.95-13.75 358.27-14.58L358.27-14.58Q360.39-15.53 360.98-17.63L360.98-17.63Q361.15-18.21 361.25-18.8L361.25-18.8Q361.88-23.17 365.47-26.11 369.06-29.05 373.84-29.05L373.84-29.05Q378.82-29.05 382.41-26.07L382.41-26.07Q385.91-23.17 386.54-18.8L386.54-18.8Q386.76-17.26 387.2-16.55L387.2-16.55Q388.03-15.26 389.52-14.58L389.52-14.58Q387.86-13.77 387.37-13.16L387.37-13.16Q386.71-12.3 386.54-11.13L386.54-11.13Q385.76-5.37 382.54-2.38 379.31 0.61 373.94 0.61L373.94 0.61Q368.18 0.61 364.88-2.73L364.88-2.73ZM378.04-19.51Q378.04-25.61 373.89-25.61 369.74-25.61 369.74-19.51L369.74-19.51 369.74-8.69Q369.74-2.83 373.87-2.83L373.87-2.83Q378.04-2.83 378.04-8.69L378.04-8.69 378.04-19.51ZM380.39-22.73L380.39-6.47Q381.61-6.93 381.73-9.67L381.73-9.67Q381.88-12.4 381.88-13.73 381.88-15.06 381.86-15.95 381.85-16.85 381.83-17.8L381.83-17.8Q381.73-21.36 381.27-21.95 380.8-22.53 380.39-22.73L380.39-22.73ZM365.76-6.47L365.76-6.47Q366.11-6.74 366.11-7.08L366.11-7.08Q366.11-7.62 365.89-8.45L365.89-8.45Q364.88-12.28 364.88-13.78 364.88-15.28 364.98-16.13 365.08-16.97 365.23-17.82L365.23-17.82Q365.54-19.48 365.89-20.75L365.89-20.75Q366.11-21.58 366.11-21.88L366.11-21.88Q366.11-22.46 365.76-22.73L365.76-22.73Q364.74-21.51 364.2-19.46 363.66-17.41 363.32-15.84L363.32-15.84Q363.2-15.19 361.88-14.58L361.88-14.58Q363.2-13.96 363.32-13.35L363.32-13.35Q364.23-9.23 364.81-8.11 365.4-6.98 365.76-6.47ZM415.79 0.49L415.79 0.49Q412.34 0.49 412.07-4.27L412.07-4.27Q410.83-2.03 408.72-0.71 406.61 0.61 404.18 0.61 401.75 0.61 400.23-0.05 398.72-0.71 397.72-1.95L397.72-1.95Q395.77-4.39 395.77-8.89L395.77-8.89 395.77-10.4Q395.77-13.23 392.79-14.6L392.79-14.6Q394.55-15.45 395.03-16.04L395.03-16.04Q395.77-16.94 395.77-18.07L395.77-18.07 395.77-21.36Q395.77-23.44 394.35-23.61L394.35-23.61Q393.93-23.66 393.3-23.66 392.67-23.66 392.13-23.24L392.13-23.24Q391.79-23.71 391.79-24.21 391.79-24.71 392.04-25.33 392.3-25.95 392.84-26.51L392.84-26.51Q394.11-27.83 395.79-27.83 397.47-27.83 398.96-27.27L398.96-27.27Q400.04-28.81 401.5-28.81L401.5-28.81Q404.02-28.81 404.02-26.17L404.02-26.17 404.02-10.28Q404.02-5.64 406.17-4.71L406.17-4.71Q406.85-4.42 407.69-4.42 408.53-4.42 409.22-4.77 409.9-5.13 410.41-5.74L410.41-5.74Q411.37-6.93 411.63-9.01L411.63-9.01 411.63-21.36Q411.63-24.15 409.36-24.15L409.36-24.15Q408.53-24.15 408-23.73L408-23.73Q407.66-24.19 407.66-24.69 407.66-25.2 407.91-25.74 408.17-26.29 408.71-26.76L408.71-26.76Q409.9-27.83 411.62-27.83 413.34-27.83 414.83-27.27L414.83-27.27Q415.91-28.81 417.37-28.81L417.37-28.81Q419.89-28.81 419.89-26.17L419.89-26.17 419.89-18.07Q419.89-16.94 420.33-16.41L420.33-16.41Q421.11-15.45 422.87-14.6L422.87-14.6Q419.89-13.23 419.89-10.4L419.89-10.4 419.89-4.1Q420.35-2.22 421.91-2.22L421.91-2.22Q422.74-2.22 423.28-2.64L423.28-2.64Q423.62-2.17 423.62-1.48 423.62-0.78 422.93-0.15 422.23 0.49 420.75 0.49 419.28 0.49 417.96-0.29L417.96-0.29Q416.98 0.49 415.79 0.49ZM413.95-22.73L413.95-6.47Q415.37-7.03 415.44-11.87L415.44-11.87Q415.44-12.89 415.44-14.21 415.44-15.53 415.43-16.47 415.42-17.41 415.39-18.26L415.39-18.26Q415.3-21.34 414.83-21.94 414.37-22.53 413.95-22.73L413.95-22.73ZM399.43-11.38L399.35-14.6 399.43-17.82Q399.43-20 399.28-20.7L399.28-20.7Q398.87-22.56 398.11-22.73L398.11-22.73 398.11-21.14Q398.11-17.02 397.93-16.3 397.74-15.58 397.34-15.22 396.94-14.87 396.16-14.6L396.16-14.6Q397.62-14.09 397.82-13.35L397.82-13.35Q398.11-12.18 398.11-8.06L398.11-8.06 398.11-6.47Q398.84-6.64 399.31-8.64L399.31-8.64Q399.43-9.2 399.43-11.38L399.43-11.38ZM426.5-4L426.5-4Q427.87-4.86 428.22-5.38 428.58-5.91 428.8-6.32L428.8-6.32Q429.38-7.42 430.52-8.04 431.65-8.67 432.97-8.67L432.97-8.67Q435.7-8.67 436.93-6.37L436.93-6.37Q437.9-4.57 439.24-4L439.24-4Q438.88-3.78 438.56-3.61 438.24-3.44 437.98-3.22L437.98-3.22Q437.41-2.76 436.85-1.79 436.29-0.83 435.25-0.11 434.22 0.61 432.97 0.61L432.97 0.61Q431.73 0.61 430.57-0.11 429.41-0.83 428.8-1.93L428.8-1.93Q428.09-3.15 427.51-3.48 426.94-3.81 426.5-4ZM431.92-2.5Q431.77-2.76 431.69-3.11 431.6-3.47 431.6-4.43 431.6-5.4 432.53-6.79L432.53-6.79Q431.99-6.79 431.58-6.58 431.16-6.37 430.85-5.96 430.53-5.54 430.39-5.31 430.26-5.08 430.07-4.83L430.07-4.83Q429.6-4.15 429.31-4L429.31-4Q429.7-3.78 430.03-3.31 430.36-2.83 430.8-2.29L430.8-2.29Q431.46-1.51 432.53-1.51L432.53-1.51Q432.38-1.78 432.23-2.01 432.07-2.25 431.92-2.5Z" opacity="1" transform="matrix(1,0,0,1,0,0)" fill="#bb84e8" class="undefined-text-1" data-fill-palette-color="secondary" id="text-1"></path></svg></g></svg></g></svg></g></svg></g><g></g></svg></g></svg></g></svg></g></svg></g><defs></defs></svg><rect width="320" height="360" fill="none" stroke="none" visibility="hidden"></rect></g></svg></g></svg>